<?xml version="1.0" encoding="UTF-8" standalone="no"?>
<!DOCTYPE svg PUBLIC "-//W3C//DTD SVG 1.1//EN"
 "http://www.w3.org/Graphics/SVG/1.1/DTD/svg11.dtd">
<!-- Generated by graphviz version 2.47.0 (20210316.0004)
 -->
<!-- Title: dependencies Pages: 1 -->
<svg width="1607pt" height="211pt"
 viewBox="0.00 0.00 1607.00 211.00" xmlns="http://www.w3.org/2000/svg" xmlns:xlink="http://www.w3.org/1999/xlink">
<g id="graph0" class="graph" transform="scale(1 1) rotate(0) translate(4 207)">
<title>dependencies</title>
<polygon fill="white" stroke="transparent" points="-4,4 -4,-207 1603,-207 1603,4 -4,4"/>
<text text-anchor="start" x="778.51" y="-42.4" font-family="Times-12" font-weight="bold" font-size="14.00">Legend</text>
<polygon fill="#ffffb3" stroke="transparent" points="565.5,-10 565.5,-30 585.5,-30 585.5,-10 565.5,-10"/>
<text text-anchor="start" x="589.13" y="-15.4" font-family="Times-12" font-size="14.00"> &#160;Declarations</text>
<polygon fill="#8dd3c7" stroke="transparent" points="678.5,-10 678.5,-30 698.5,-30 698.5,-10 678.5,-10"/>
<text text-anchor="start" x="702.23" y="-15.4" font-family="Times-12" font-size="14.00"> &#160;Module</text>
<polygon fill="#80b1d3" stroke="transparent" points="764.5,-10 764.5,-30 784.5,-30 784.5,-10 764.5,-10"/>
<text text-anchor="start" x="788.28" y="-15.4" font-family="Times-12" font-size="14.00"> &#160;Bootstrap</text>
<polygon fill="#fdb462" stroke="transparent" points="861.5,-10 861.5,-30 881.5,-30 881.5,-10 861.5,-10"/>
<text text-anchor="start" x="885.17" y="-15.4" font-family="Times-12" font-size="14.00"> &#160;Providers</text>
<polygon fill="#fb8072" stroke="transparent" points="957.5,-10 957.5,-30 977.5,-30 977.5,-10 957.5,-10"/>
<text text-anchor="start" x="981.23" y="-15.4" font-family="Times-12" font-size="14.00"> &#160;Exports</text>
<g id="clust1" class="cluster">
<title>cluster_TasksModule</title>
<polygon fill="none" stroke="black" stroke-dasharray="1,5" points="8,-70 8,-195 1591,-195 1591,-70 8,-70"/>
</g>
<g id="clust2" class="cluster">
<title>cluster_TasksModule_declarations</title>
<polygon fill="none" stroke="black" points="827,-78 827,-130 1583,-130 1583,-78 827,-78"/>
</g>
<g id="clust11" class="cluster">
<title>cluster_TasksModule_providers</title>
<polygon fill="none" stroke="black" points="178,-78 178,-130 819,-130 819,-78 178,-78"/>
</g>
<g id="clust8" class="cluster">
<title>cluster_TasksModule_imports</title>
<polygon fill="none" stroke="black" points="16,-78 16,-130 170,-130 170,-78 16,-78"/>
</g>
<!-- MainTaskComponent -->
<g id="node1" class="node">
<title>MainTaskComponent</title>
<polygon fill="#ffffb3" stroke="black" points="1575.09,-122 1436.91,-122 1436.91,-86 1575.09,-86 1575.09,-122"/>
<text text-anchor="middle" x="1506" y="-99.8" font-family="Times,serif" font-size="14.00">MainTaskComponent</text>
</g>
<!-- TasksModule -->
<g id="node6" class="node">
<title>TasksModule</title>
<polygon fill="#8dd3c7" stroke="black" points="959.21,-187 956.21,-191 935.21,-191 932.21,-187 866.79,-187 866.79,-151 959.21,-151 959.21,-187"/>
<text text-anchor="middle" x="913" y="-164.8" font-family="Times,serif" font-size="14.00">TasksModule</text>
</g>
<!-- MainTaskComponent&#45;&gt;TasksModule -->
<g id="edge1" class="edge">
<title>MainTaskComponent&#45;&gt;TasksModule</title>
<path fill="none" stroke="black" d="M1506,-122.01C1506,-144.49 1506,-180 1506,-180 1506,-180 969.53,-180 969.53,-180"/>
<polygon fill="black" stroke="black" points="969.53,-176.5 959.53,-180 969.53,-183.5 969.53,-176.5"/>
</g>
<!-- TaskComponent -->
<g id="node2" class="node">
<title>TaskComponent</title>
<polygon fill="#ffffb3" stroke="black" points="1419.05,-122 1310.95,-122 1310.95,-86 1419.05,-86 1419.05,-122"/>
<text text-anchor="middle" x="1365" y="-99.8" font-family="Times,serif" font-size="14.00">TaskComponent</text>
</g>
<!-- TaskComponent&#45;&gt;TasksModule -->
<g id="edge2" class="edge">
<title>TaskComponent&#45;&gt;TasksModule</title>
<path fill="none" stroke="black" d="M1365,-122.13C1365,-142.57 1365,-173 1365,-173 1365,-173 969.25,-173 969.25,-173"/>
<polygon fill="black" stroke="black" points="969.25,-169.5 959.25,-173 969.25,-176.5 969.25,-169.5"/>
</g>
<!-- TaskDateFormatPipe -->
<g id="node3" class="node">
<title>TaskDateFormatPipe</title>
<polygon fill="#ffffb3" stroke="black" points="1292.47,-122 1157.53,-122 1157.53,-86 1292.47,-86 1292.47,-122"/>
<text text-anchor="middle" x="1225" y="-99.8" font-family="Times,serif" font-size="14.00">TaskDateFormatPipe</text>
</g>
<!-- TaskDateFormatPipe&#45;&gt;TasksModule -->
<g id="edge3" class="edge">
<title>TaskDateFormatPipe&#45;&gt;TasksModule</title>
<path fill="none" stroke="black" d="M1225,-122.27C1225,-140.56 1225,-166 1225,-166 1225,-166 969.37,-166 969.37,-166"/>
<polygon fill="black" stroke="black" points="969.37,-162.5 959.37,-166 969.37,-169.5 969.37,-162.5"/>
</g>
<!-- TaskListComponent -->
<g id="node4" class="node">
<title>TaskListComponent</title>
<polygon fill="#ffffb3" stroke="black" points="1139.32,-122 1008.68,-122 1008.68,-86 1139.32,-86 1139.32,-122"/>
<text text-anchor="middle" x="1074" y="-99.8" font-family="Times,serif" font-size="14.00">TaskListComponent</text>
</g>
<!-- TaskListComponent&#45;&gt;TasksModule -->
<g id="edge4" class="edge">
<title>TaskListComponent&#45;&gt;TasksModule</title>
<path fill="none" stroke="black" d="M1074,-122.01C1074,-138.05 1074,-159 1074,-159 1074,-159 969.14,-159 969.14,-159"/>
<polygon fill="black" stroke="black" points="969.14,-155.5 959.14,-159 969.14,-162.5 969.14,-155.5"/>
</g>
<!-- TaskStateColorDirective -->
<g id="node5" class="node">
<title>TaskStateColorDirective</title>
<polygon fill="#ffffb3" stroke="black" points="990.68,-122 835.32,-122 835.32,-86 990.68,-86 990.68,-122"/>
<text text-anchor="middle" x="913" y="-99.8" font-family="Times,serif" font-size="14.00">TaskStateColorDirective</text>
</g>
<!-- TaskStateColorDirective&#45;&gt;TasksModule -->
<g id="edge5" class="edge">
<title>TaskStateColorDirective&#45;&gt;TasksModule</title>
<path fill="none" stroke="black" d="M913,-122.11C913,-122.11 913,-140.99 913,-140.99"/>
<polygon fill="black" stroke="black" points="909.5,-140.99 913,-150.99 916.5,-140.99 909.5,-140.99"/>
</g>
<!-- TasksRoutingModule -->
<g id="node7" class="node">
<title>TasksRoutingModule</title>
<polygon fill="#8dd3c7" stroke="black" points="161.82,-122 158.82,-126 137.82,-126 134.82,-122 24.18,-122 24.18,-86 161.82,-86 161.82,-122"/>
<text text-anchor="middle" x="93" y="-99.8" font-family="Times,serif" font-size="14.00">TasksRoutingModule</text>
</g>
<!-- TasksRoutingModule&#45;&gt;TasksModule -->
<g id="edge6" class="edge">
<title>TasksRoutingModule&#45;&gt;TasksModule</title>
<path fill="none" stroke="black" d="M93,-122.01C93,-144.49 93,-180 93,-180 93,-180 856.86,-180 856.86,-180"/>
<polygon fill="black" stroke="black" points="856.86,-183.5 866.86,-180 856.86,-176.5 856.86,-183.5"/>
</g>
<!-- ByStatutTaskListService -->
<g id="node8" class="node">
<title>ByStatutTaskListService</title>
<ellipse fill="#fdb462" stroke="black" cx="703" cy="-104" rx="107.68" ry="18"/>
<text text-anchor="middle" x="703" y="-99.8" font-family="Times,serif" font-size="14.00">ByStatutTaskListService</text>
</g>
<!-- ByStatutTaskListService&#45;&gt;TasksModule -->
<g id="edge7" class="edge">
<title>ByStatutTaskListService&#45;&gt;TasksModule</title>
<path fill="none" stroke="black" d="M703,-122.01C703,-138.05 703,-159 703,-159 703,-159 856.65,-159 856.65,-159"/>
<polygon fill="black" stroke="black" points="856.65,-162.5 866.65,-159 856.65,-155.5 856.65,-162.5"/>
</g>
<!-- CRUDTaskListService -->
<g id="node9" class="node">
<title>CRUDTaskListService</title>
<ellipse fill="#fdb462" stroke="black" cx="477" cy="-104" rx="100.72" ry="18"/>
<text text-anchor="middle" x="477" y="-99.8" font-family="Times,serif" font-size="14.00">CRUDTaskListService</text>
</g>
<!-- CRUDTaskListService&#45;&gt;TasksModule -->
<g id="edge8" class="edge">
<title>CRUDTaskListService&#45;&gt;TasksModule</title>
<path fill="none" stroke="black" d="M477,-122.27C477,-140.56 477,-166 477,-166 477,-166 856.75,-166 856.75,-166"/>
<polygon fill="black" stroke="black" points="856.75,-169.5 866.75,-166 856.75,-162.5 856.75,-169.5"/>
</g>
<!-- TaskFacadeService -->
<g id="node10" class="node">
<title>TaskFacadeService</title>
<ellipse fill="#fdb462" stroke="black" cx="272" cy="-104" rx="86.21" ry="18"/>
<text text-anchor="middle" x="272" y="-99.8" font-family="Times,serif" font-size="14.00">TaskFacadeService</text>
</g>
<!-- TaskFacadeService&#45;&gt;TasksModule -->
<g id="edge9" class="edge">
<title>TaskFacadeService&#45;&gt;TasksModule</title>
<path fill="none" stroke="black" d="M272,-122.13C272,-142.57 272,-173 272,-173 272,-173 856.64,-173 856.64,-173"/>
<polygon fill="black" stroke="black" points="856.64,-176.5 866.64,-173 856.64,-169.5 856.64,-176.5"/>
</g>
</g>
</svg>
